<svg xmlns="http://www.w3.org/2000/svg" viewBox="0 0 128 128">
  <defs>
    <linearGradient id="bg" x1="0%" y1="0%" x2="100%" y2="100%">
      <stop offset="0%" style="stop-color:#667eea"/>
      <stop offset="100%" style="stop-color:#764ba2"/>
    </linearGradient>
    <linearGradient id="doc" x1="0%" y1="0%" x2="100%" y2="100%">
      <stop offset="0%" style="stop-color:#ffffff"/>
      <stop offset="100%" style="stop-color:#f0f0f0"/>
    </linearGradient>
  </defs>
  <rect width="128" height="128" rx="24" fill="url(#bg)"/>
  <g transform="translate(24, 20)">
    <path d="M0 8 C0 3.58 3.58 0 8 0 L56 0 L80 24 L80 80 C80 84.42 76.42 88 72 88 L8 88 C3.58 88 0 84.42 0 80 Z" fill="url(#doc)"/>
    <path d="M56 0 L56 16 C56 20.42 59.58 24 64 24 L80 24 Z" fill="#e0e0e0"/>
    <rect x="12" y="36" width="40" height="4" rx="2" fill="#667eea"/>
    <rect x="12" y="48" width="56" height="4" rx="2" fill="#999"/>
    <rect x="12" y="60" width="48" height="4" rx="2" fill="#999"/>
    <rect x="12" y="72" width="32" height="4" rx="2" fill="#999"/>
  </g>
</svg>
